<svg fill="none" xmlns="http://www.w3.org/2000/svg" viewBox="0 0 54 54"><g clip-path="url(#a)" fill="#222"><path fill-rule="evenodd" clip-rule="evenodd" d="M0 0h54v18H21.602a9 9 0 1 0 0 18H54v18H0V0Z"/><path d="M53.998 27a7.2 7.2 0 1 1-14.4 0 7.2 7.2 0 0 1 14.4 0ZM38.158 33.237a7.2 7.2 0 1 1 0-12.473v12.473ZM25.918 34.2V19.8a7.2 7.2 0 0 0 0 14.4ZM17.278 32.762V21.24a7.189 7.189 0 0 0-2.88 5.76 7.189 7.189 0 0 0 2.88 5.76Z"/></g><defs><clipPath id="a"><path fill="#fff" d="M0 0h54v54H0z"/></clipPath></defs></svg>