<svg fill="none" xmlns="http://www.w3.org/2000/svg" viewBox="0 0 16 16" width="16px" height="16px"><path d="M8.23 3.888c-.551 0-1.048.095-1.49.287a3.03 3.03 0 0 0-1.12.82c-.306.356-.54.786-.705 1.292a5.526 5.526 0 0 0-.246 1.71c0 .838.13 1.567.39 2.187.264.615.656 1.091 1.175 1.428.524.338 1.178.506 1.962.506.447 0 .866-.036 1.258-.11.397-.077.782-.172 1.155-.286v1.011a5.905 5.905 0 0 1-1.148.301 8.634 8.634 0 0 1-1.429.103c-1.016 0-1.866-.21-2.55-.63-.679-.423-1.189-1.02-1.53-1.79-.338-.77-.507-1.68-.507-2.728 0-.756.105-1.447.315-2.071a4.687 4.687 0 0 1 .93-1.627c.41-.456.91-.807 1.503-1.053.597-.25 1.281-.376 2.051-.376.506 0 .994.05 1.463.15.47.101.893.245 1.271.431l-.464.985a6.938 6.938 0 0 0-1.053-.376 4.414 4.414 0 0 0-1.23-.164Z" fill="#222"/><circle cx="8" cy="8" r="7.5" stroke="#222"/></svg>