<svg width="38" height="38" viewBox="0 0 38 38" fill="none" xmlns="http://www.w3.org/2000/svg">
<path d="M20.6448 3.00197C21.8123 2.99749 22.9799 3.00922 24.147 3.03717L24.4574 3.04837C24.8158 3.06117 25.1694 3.07717 25.5966 3.09637C27.2989 3.17636 28.4604 3.44515 29.4796 3.84034C30.5355 4.24673 31.4251 4.79711 32.3146 5.68668C33.128 6.48602 33.7575 7.45293 34.1593 8.52018C34.5545 9.53935 34.8233 10.7025 34.9033 12.4048C34.9225 12.8304 34.9385 13.1856 34.9513 13.544L34.9609 13.8544C34.9893 15.0211 35.0016 16.1881 34.9977 17.3551L34.9993 18.5486V20.6446C35.0032 21.8121 34.991 22.9796 34.9625 24.1468L34.9529 24.4572C34.9401 24.8156 34.9241 25.1692 34.9049 25.5964C34.8249 27.2987 34.5529 28.4603 34.1593 29.4795C33.7588 30.5478 33.1291 31.5156 32.3146 32.3146C31.5146 33.1279 30.5472 33.7573 29.4796 34.1593C28.4604 34.5545 27.2989 34.8233 25.5966 34.9033C25.1694 34.9225 24.8158 34.9385 24.4574 34.9513L24.147 34.9609C22.9799 34.9893 21.8123 35.0016 20.6448 34.9977L19.4513 34.9993H17.357C16.1895 35.0032 15.0219 34.991 13.8548 34.9625L13.5444 34.9529C13.1646 34.9391 12.7849 34.9231 12.4052 34.9049C10.7029 34.8249 9.54139 34.5529 8.52064 34.1593C7.45299 33.7583 6.48592 33.1287 5.68719 32.3146C4.8729 31.5151 4.24282 30.5475 3.84088 29.4795C3.4457 28.4603 3.17691 27.2987 3.09692 25.5964C3.0791 25.2168 3.0631 24.837 3.04892 24.4572L3.04092 24.1468C3.01142 22.9797 2.99809 21.8121 3.00092 20.6446V17.3551C2.99646 16.1881 3.00819 15.0211 3.03612 13.8544L3.04732 13.544C3.06012 13.1856 3.07612 12.8304 3.09532 12.4048C3.17531 10.7009 3.4441 9.54095 3.83928 8.52018C4.24146 7.45241 4.87277 6.48576 5.68879 5.68828C6.48698 4.87351 7.45343 4.24284 8.52064 3.84034C9.54139 3.44515 10.7013 3.17636 12.4052 3.09637L13.5444 3.04837L13.8548 3.04037C15.0214 3.01089 16.1884 2.99755 17.3554 3.00037L20.6448 3.00197ZM19.0001 11.0017C17.9402 10.9867 16.8878 11.1825 15.9042 11.5778C14.9206 11.973 14.0254 12.5598 13.2705 13.3041C12.5157 14.0484 11.9163 14.9352 11.5072 15.9131C11.0981 16.8911 10.8874 17.9406 10.8874 19.0006C10.8874 20.0607 11.0981 21.1102 11.5072 22.0881C11.9163 23.066 12.5157 23.9529 13.2705 24.6971C14.0254 25.4414 14.9206 26.0282 15.9042 26.4235C16.8878 26.8187 17.9402 27.0145 19.0001 26.9996C21.1217 26.9996 23.1565 26.1567 24.6567 24.6565C26.1569 23.1562 26.9997 21.1215 26.9997 18.9998C26.9997 16.8782 26.1569 14.8434 24.6567 13.3432C23.1565 11.8429 21.1217 11.0017 19.0001 11.0017ZM19.0001 14.2016C19.6377 14.1898 20.2712 14.3053 20.8637 14.5411C21.4562 14.777 21.9957 15.1285 22.4508 15.5752C22.9059 16.0219 23.2674 16.5548 23.5142 17.1428C23.761 17.7308 23.8882 18.3621 23.8883 18.9998C23.8884 19.6375 23.7614 20.2688 23.5148 20.8569C23.2682 21.445 22.9068 21.978 22.4519 22.4249C21.997 22.8717 21.4576 23.2235 20.8652 23.4595C20.2728 23.6956 19.6393 23.8112 19.0017 23.7997C17.7287 23.7997 16.5079 23.294 15.6078 22.3938C14.7076 21.4937 14.2019 20.2728 14.2019 18.9998C14.2019 17.7268 14.7076 16.506 15.6078 15.6058C16.5079 14.7057 17.7287 14.2 19.0017 14.2L19.0001 14.2016ZM27.3997 8.60178C26.8835 8.62244 26.3954 8.84201 26.0375 9.21451C25.6796 9.58701 25.4798 10.0835 25.4798 10.6001C25.4798 11.1167 25.6796 11.6132 26.0375 11.9857C26.3954 12.3582 26.8835 12.5778 27.3997 12.5984C27.9301 12.5984 28.4388 12.3877 28.8138 12.0127C29.1889 11.6376 29.3996 11.1289 29.3996 10.5985C29.3996 10.0681 29.1889 9.5594 28.8138 9.18434C28.4388 8.80929 27.9301 8.59858 27.3997 8.59858V8.60178Z" fill="#222222"/>
</svg>
